<svg width="138" height="30" viewBox="0 0 138 30" xmlns="http://www.w3.org/2000/svg" class="CheckoutHeader-logo-icon"><path d="M135.742.487h-3.105c-.886 0-1.42.536-1.42 1.42v9.182c0 3.371-1.818 5.278-4.346 5.278-2.662 0-4.17-1.729-4.17-5.055V1.907c0-.886-.535-1.42-1.42-1.42h-3.104c-.886 0-1.42.536-1.42 1.42v9.848c0 6.254 3.239 9.802 8.118 9.802 2.928 0 5.19-.975 6.786-2.972l.268 1.243c.178.804.71 1.242 1.552 1.242h2.262c.888 0 1.42-.536 1.42-1.42V1.907c-.001-.886-.533-1.42-1.421-1.42zm-21.646 15.171h-5.588c-1.952 0-2.972-1.02-2.972-2.972V1.907c0-.886-.536-1.42-1.42-1.42h-3.194c-.887 0-1.418.536-1.418 1.42V13.44c0 4.746 2.882 7.634 7.633 7.634h6.965c.886 0 1.42-.536 1.42-1.42v-2.577c-.006-.886-.539-1.42-1.426-1.42zM23.697 1.863C23.607.938 23.12.488 22.232.488h-2.35c-.754 0-1.286.31-1.685.976l-5.723 9.67-5.322-9.67C6.797.794 6.214.488 5.466.488H2.938c-.888 0-1.375.45-1.465 1.375L.011 19.606c-.09.976.401 1.464 1.33 1.464H4.18c.887 0 1.42-.444 1.464-1.376l.621-9.936 3.415 6.16c.355.67.938.977 1.685.977h1.953c.754 0 1.286-.268 1.685-.976l3.86-6.61.443 10.38c.044.937.536 1.375 1.42 1.375h3.06c.937 0 1.42-.487 1.33-1.464L23.697 1.863zM95.377.487h-2.439c-.843 0-1.42.444-1.552 1.288l-.134 1.02C89.878 1.331 87.882 0 84.554 0c-5.588 0-9.713 4.392-9.713 10.734 0 6.21 3.858 10.823 9.359 10.823 3.459 0 5.722-1.464 7.098-2.972l.222 1.243c.134.804.67 1.242 1.508 1.242h2.35c.889 0 1.42-.536 1.42-1.42V1.907c-.001-.886-.533-1.42-1.42-1.42zm-9.529 15.88c-3.15 0-5.145-2.173-5.145-5.544 0-3.415 2.084-5.633 5.145-5.633 3.149 0 5.144 2.173 5.144 5.544-.006 3.416-2.09 5.633-5.144 5.633zM71.292.487h-2.44c-.843 0-1.419.444-1.553 1.288l-.134 1.02C65.791 1.331 63.795 0 60.47 0c-5.59 0-9.71 4.125-9.71 10.468 0 6.033 3.814 10.29 9.315 10.29 3.415 0 5.456-1.419 6.83-2.927v1.02c0 3.549-1.996 5.812-6.209 5.812-1.728 0-3.436-.365-5.013-1.071-.842-.402-1.508-.223-1.907.62l-.976 1.952c-.402.804-.268 1.464.489 1.907 2.35 1.33 5.233 1.863 8.027 1.863 6.964 0 11.4-4.391 11.4-10.513V1.907c-.004-.886-.536-1.42-1.423-1.42zm-9.536 15.215c-3.062 0-5.146-2.04-5.146-5.19 0-3.327 2.173-5.322 5.146-5.322 3.06 0 5.144 1.818 5.144 5.234 0 3.06-2.172 5.278-5.144 5.278zM47.206.487h-2.439c-.844 0-1.42.444-1.554 1.288l-.134 1.02C41.705 1.331 39.71 0 36.383 0c-5.589 0-9.714 4.392-9.714 10.734 0 6.21 3.859 10.823 9.36 10.823 3.458 0 5.72-1.464 7.097-2.972l.223 1.243c.134.804.67 1.242 1.508 1.242h2.35c.888 0 1.42-.536 1.42-1.42V1.907c-.002-.886-.533-1.42-1.421-1.42zm-9.537 15.88c-3.149 0-5.146-2.173-5.146-5.544 0-3.415 2.085-5.633 5.146-5.633 3.15 0 5.145 2.173 5.145 5.544 0 3.416-2.084 5.633-5.145 5.633z" fill="#FFF"></path></svg>